<?xml version="1.0" standalone="no"?>
<!DOCTYPE svg PUBLIC "-//W3C//DTD SVG 20010904//EN"
 "http://www.w3.org/TR/2001/REC-SVG-20010904/DTD/svg10.dtd">
<svg version="1.0" xmlns="http://www.w3.org/2000/svg"
 width="686.000000pt" height="686.000000pt" viewBox="0 0 686.000000 686.000000"
 preserveAspectRatio="xMidYMid meet">
<metadata>
Created by potrace 1.11, written by Peter Selinger 2001-2013
</metadata>
<g transform="translate(0.000000,686.000000) scale(0.100000,-0.100000)"
fill="#000000" stroke="none">
<path d="M2870 6826 c-64 -17 -106 -45 -177 -119 -229 -238 -420 -745 -512
-1357 -26 -176 -37 -288 -56 -550 -16 -236 -18 -244 -145 -670 -191 -639 -284
-844 -460 -1021 -133 -133 -224 -166 -318 -114 -114 62 -245 211 -324 369
-138 274 -195 669 -170 1171 12 248 31 384 87 625 89 387 213 704 360 926 59
88 194 224 223 224 34 0 141 -60 187 -105 25 -24 70 -84 101 -132 94 -147 129
-172 159 -113 20 39 19 75 -5 152 -25 83 -82 170 -151 232 -94 86 -193 116
-374 116 -186 0 -307 -51 -445 -190 -500 -499 -699 -1730 -413 -2554 132 -380
345 -644 630 -779 66 -31 72 -32 203 -32 135 0 135 0 198 34 118 64 230 195
320 376 81 163 175 431 292 835 24 80 46 149 50 153 4 5 13 -31 20 -80 60
-442 197 -772 344 -828 32 -12 66 -16 119 -14 89 5 130 31 177 112 59 103 153
441 236 856 25 124 47 228 49 231 3 4 26 3 53 -2 139 -28 225 67 376 417 31
72 63 144 70 160 13 26 14 5 9 -175 -9 -345 17 -430 134 -430 75 0 126 56 218
240 l47 94 23 -63 c41 -111 118 -169 212 -158 95 10 157 111 281 457 38 107
84 243 102 303 l33 107 33 0 c43 0 136 -20 151 -32 15 -12 12 -21 -64 -160
-175 -318 -260 -592 -270 -874 -6 -176 9 -277 59 -387 53 -116 125 -162 248
-161 183 3 264 136 370 612 26 117 50 215 53 218 2 3 33 -24 68 -59 76 -75
128 -97 233 -97 187 0 258 88 606 745 73 138 137 255 142 262 5 7 8 22 6 35
-4 31 -60 37 -106 12 -50 -27 -137 -142 -232 -304 -150 -260 -182 -313 -261
-430 -43 -63 -98 -135 -123 -160 -51 -49 -53 -48 -92 24 -52 94 -107 354 -86
400 10 23 19 27 102 40 53 9 137 62 170 108 84 115 -9 251 -173 251 -75 0
-143 -31 -198 -90 -70 -75 -101 -148 -124 -290 -22 -136 -77 -391 -135 -624
-69 -280 -139 -457 -203 -517 l-24 -23 -17 58 c-9 32 -21 107 -27 167 -27 263
46 581 226 986 86 192 103 248 90 286 -17 46 -52 62 -167 78 -59 8 -112 17
-117 21 -6 3 31 47 82 98 101 100 137 159 137 224 0 34 -6 46 -30 67 -82 68
-247 36 -353 -71 -102 -102 -129 -220 -72 -319 l29 -51 -48 -139 c-132 -382
-262 -664 -306 -664 -6 0 -10 130 -10 365 l0 365 -25 16 c-32 21 -93 28 -128
15 -41 -16 -54 -58 -72 -247 -12 -113 -25 -193 -41 -242 -53 -160 -195 -425
-217 -403 -18 18 -19 212 -3 541 17 352 18 340 -51 340 -37 0 -55 -23 -108
-140 -16 -36 -30 -66 -31 -68 -1 -1 -23 9 -49 23 -40 21 -61 25 -129 25 -99 0
-147 -20 -210 -85 -99 -101 -156 -251 -181 -475 -21 -185 -53 -354 -117 -605
-64 -253 -138 -486 -190 -594 -46 -96 -51 -95 -88 4 -91 249 -140 637 -140
1114 l0 223 71 76 c263 282 470 694 603 1202 96 365 84 550 -36 593 -61 22
-135 27 -188 13z m140 -118 c76 -168 -87 -813 -307 -1217 -91 -168 -262 -400
-263 -359 0 10 11 104 25 210 73 575 201 1024 359 1261 61 93 116 147 147 147
14 0 26 -13 39 -42z m1870 -748 c17 -31 -17 -95 -90 -173 -74 -80 -96 -86 -86
-26 12 74 69 169 120 200 39 24 43 24 56 -1z m624 -526 c19 -50 1 -66 -88 -79
l-48 -8 4 29 c6 52 116 101 132 58z m-2123 -216 c8 -18 14 -64 14 -103 0 -60
-5 -79 -33 -133 -31 -61 -113 -189 -155 -242 l-20 -25 5 95 c6 106 34 212 80
304 36 72 78 136 88 136 4 0 14 -15 21 -32z"/>
<path d="M4036 5804 c-9 -8 -16 -26 -16 -39 0 -37 26 -55 80 -55 54 0 80 18
80 55 0 37 -26 55 -80 55 -31 0 -54 -6 -64 -16z"/>
<path d="M3615 3966 c-11 -16 -18 -60 -22 -138 l-6 -114 -105 -34 c-124 -41
-162 -62 -162 -90 0 -31 56 -26 161 15 50 19 97 35 104 35 8 0 14 -29 18 -97
6 -109 20 -158 47 -173 29 -15 68 -12 78 7 6 9 8 78 4 158 -3 87 -1 144 5 148
5 3 81 22 168 41 149 34 185 47 185 67 0 14 -55 11 -185 -11 -66 -11 -134 -20
-152 -20 -31 0 -32 1 -38 58 -10 81 -24 144 -37 159 -17 20 -46 15 -63 -11z"/>
<path d="M5514 3869 c-24 -7 -36 -19 -47 -47 -26 -65 -47 -229 -72 -547 -18
-224 -19 -232 -43 -239 -34 -10 -452 -76 -483 -76 -5 0 -9 82 -9 203 0 235
-10 322 -39 351 -25 25 -122 34 -176 16 -29 -10 -41 -21 -55 -54 -21 -48 -45
-219 -60 -426 -6 -79 -14 -147 -18 -151 -4 -3 -89 -25 -190 -49 -100 -24 -188
-48 -195 -52 -9 -6 -7 -12 7 -23 29 -22 113 -18 251 10 66 13 123 25 128 25 4
0 7 -75 7 -166 l0 -166 -106 -420 c-58 -231 -109 -430 -114 -442 -6 -17 -10
-10 -18 34 -32 160 -41 266 -62 705 -13 256 -20 300 -51 308 -29 8 -70 -9 -94
-39 -19 -24 -22 -25 -68 -13 -69 17 -195 6 -252 -21 -55 -27 -119 -98 -175
-196 -113 -197 -147 -349 -210 -934 -17 -157 -42 -391 -56 -520 -29 -271 -48
-405 -71 -504 -15 -66 -17 -69 -25 -41 -17 60 -58 315 -77 490 -28 249 -47
511 -76 1060 -53 999 -72 1072 -272 1063 -64 -3 -76 -7 -103 -33 -81 -78 -247
-491 -338 -845 -58 -224 -111 -518 -128 -712 -4 -43 -10 -78 -13 -78 -4 0 -15
71 -24 158 -87 779 -180 1191 -280 1252 -47 29 -112 36 -152 17 -47 -23 -77
-79 -139 -268 -68 -202 -133 -447 -220 -819 -36 -157 -72 -305 -79 -329 l-14
-44 -30 74 c-49 118 -97 271 -148 464 -54 208 -76 266 -117 300 -25 21 -40 25
-100 25 -68 0 -72 -1 -108 -37 -79 -80 -79 -230 0 -477 92 -287 240 -507 370
-552 76 -26 175 -25 220 2 72 42 84 80 135 424 37 249 62 387 97 530 56 232
148 510 169 510 5 0 9 -3 9 -6 0 -3 11 -83 25 -177 13 -95 43 -343 65 -552 61
-572 101 -834 162 -1060 28 -104 52 -160 82 -190 22 -22 34 -25 96 -25 64 0
71 2 79 23 5 12 13 200 20 417 12 428 26 580 80 841 61 292 146 539 271 789
l67 135 7 -60 c3 -33 13 -262 21 -510 36 -1064 75 -1424 198 -1794 46 -141
101 -234 157 -263 45 -23 114 -23 167 1 104 48 129 163 193 911 33 382 67 736
76 786 l6 30 82 -4 c153 -8 193 33 321 323 65 148 94 200 105 188 5 -4 13 -91
20 -193 28 -458 64 -663 123 -705 32 -22 109 -19 140 5 31 24 61 111 116 335
22 88 44 171 50 185 9 22 10 20 10 -21 1 -25 8 -97 16 -160 70 -531 220 -957
377 -1066 58 -39 163 -45 228 -11 102 52 118 127 205 953 25 242 49 453 54
470 6 25 9 19 20 -45 21 -119 106 -444 151 -575 56 -165 196 -446 255 -513 26
-29 59 -59 74 -67 71 -36 208 -26 249 18 55 58 68 134 132 767 70 695 93 851
146 1004 14 42 23 83 20 91 -11 29 -66 18 -103 -21 -91 -97 -120 -227 -213
-949 -51 -397 -83 -607 -104 -679 l-12 -40 -38 99 c-170 445 -270 971 -302
1591 l-7 132 69 11 c38 6 139 20 224 31 187 25 261 39 278 52 17 15 15 45 -4
52 -32 12 -184 6 -367 -16 -154 -18 -190 -20 -196 -9 -5 7 -12 133 -15 280 -8
288 -18 412 -37 454 -6 14 -25 31 -42 37 -34 12 -41 12 -83 -1z m-140 -945
c11 -28 6 -87 -13 -169 -43 -182 -76 -405 -157 -1070 -72 -595 -108 -806 -134
-790 -14 9 -76 214 -104 345 -34 158 -63 367 -76 540 -14 202 -30 668 -30 897
l0 192 33 6 c69 13 423 63 448 64 16 1 29 -6 33 -15z m-1438 -479 c16 -25 15
-28 -19 -98 -49 -97 -156 -290 -169 -302 -31 -30 43 228 94 330 27 53 57 95
68 95 5 0 17 -11 26 -25z"/>
</g>
</svg>
